<svg xmlns="http://www.w3.org/2000/svg" width="780" height="440" viewBox="0 0 780 440"><defs><style>.d{fill:#fff;}.e{fill:#ff95c1;}.f{fill:#162020;}.g{fill:#7dead5;}.h{fill:#08c4b2;}</style></defs><g id="a"><rect class="g" x=".0018" y=".0014" width="780" height="440"></rect></g><g id="b"><g><path class="f" d="M638.708,155.7627c-1.292,0-2.5322-.4492-3.5342-1.29-2.3301-1.9546-2.6357-5.4399-.6807-7.77,.9463-1.1284,2.2754-1.8208,3.7432-1.9492,1.4639-.1318,2.8965,.3218,4.0254,1.269,1.1289,.9463,1.8213,2.2759,1.9502,3.7432,.1289,1.4678-.3223,2.8975-1.2695,4.0264h0c-.9463,1.1284-2.2754,1.8208-3.7432,1.9492-.1641,.0146-.3281,.0215-.4912,.0215Zm.0176-9.7808c-.126,0-.2529,.0054-.3799,.0166-1.1348,.0991-2.1631,.6348-2.8955,1.5073-1.5107,1.8022-1.2754,4.4976,.5264,6.0088,.873,.7324,1.9756,1.0825,3.1133,.9814,1.1348-.0996,2.1631-.6348,2.8955-1.5078h0c.7324-.8726,1.0811-1.9785,.9814-3.1133s-.6348-2.1631-1.5078-2.895c-.7754-.6504-1.7344-.998-2.7334-.998Z"></path><g><path class="f" d="M630.8848,199.9634c-.1416,0-.2842-.0479-.4014-.146l-8.5791-7.1973c-.2646-.2222-.2988-.6162-.0771-.8809,.2207-.2637,.6162-.2988,.8799-.0771l8.5791,7.1973c.2646,.2222,.2988,.6162,.0771,.8809-.123,.147-.3008,.2231-.4785,.2231Z"></path><path class="f" d="M622.9971,200.6543c-.1416,0-.2842-.0479-.4014-.146-.2646-.2222-.2988-.6162-.0771-.8809l7.1973-8.5791c.2207-.2642,.6162-.2983,.8799-.0771,.2646,.2222,.2988,.6162,.0771,.8809l-7.1973,8.5791c-.123,.147-.3008,.2231-.4785,.2231Z"></path></g><path class="f" d="M669.25,194.1318c-.3203,0-.5928-.2451-.6221-.5703l-.7656-8.7349c-.0137-.165,.0381-.3296,.1445-.4565s.2588-.2061,.4238-.2207l8.7354-.7656c.3369-.0264,.6465,.2236,.6777,.5679l.7656,8.7354c.0137,.165-.0381,.3296-.1445,.4565s-.2588,.2065-.4238,.2207l-8.7354,.7651c-.0186,.0015-.0371,.0024-.0557,.0024Zm-.0879-8.792l.6572,7.4897,7.4902-.6558-.6572-7.4902-7.4902,.6562Z"></path></g><g><g><rect class="h" x="256.7832" y="87.7311" width="337.5562" height="82.7535"></rect><path class="f" d="M594.3398,171.1094H256.7832c-.3447,0-.625-.2798-.625-.625V87.731c0-.3452,.2803-.625,.625-.625h337.5566c.3447,0,.625,.2798,.625,.625v82.7534c0,.3452-.2803,.625-.625,.625Zm-336.9316-1.25h336.3066V88.356H257.4082v81.5034Z"></path></g><g><path class="g" d="M321.9364,128.8771c8.4389,0,14.8922-7.772,14.8922-17.9363v-35.8721c0-10.1638-6.4533-17.9363-14.8922-17.9363s-14.8922,7.7725-14.8922,17.9363v35.8721c0,10.1643,6.4533,17.9363,14.8922,17.9363h0Z"></path><path class="f" d="M321.9365,129.502c-8.8467,0-15.5176-7.9795-15.5176-18.561v-35.8721c0-10.582,6.6709-18.5615,15.5176-18.5615s15.5176,7.9795,15.5176,18.5615v35.8721c0,10.5815-6.6709,18.561-15.5176,18.561Zm0-71.7446c-8.1338,0-14.2676,7.4424-14.2676,17.3115v35.8721c0,9.8691,6.1338,17.311,14.2676,17.311s14.2676-7.4419,14.2676-17.311v-35.8721c0-9.8691-6.1338-17.3115-14.2676-17.3115Z"></path></g><g><path class="g" d="M425.5613,128.8771c8.4389,0,14.8922-7.772,14.8922-17.9363v-35.8721c0-10.1638-6.4533-17.9363-14.8922-17.9363s-14.8922,7.7725-14.8922,17.9363v35.8721c0,10.1643,6.4533,17.9363,14.8922,17.9363h0Z"></path><path class="f" d="M425.5615,129.502c-8.8467,0-15.5176-7.9795-15.5176-18.561v-35.8721c0-10.582,6.6709-18.5615,15.5176-18.5615s15.5166,7.9795,15.5166,18.5615v35.8721c0,10.5815-6.6709,18.561-15.5166,18.561Zm0-71.7446c-8.1338,0-14.2676,7.4424-14.2676,17.3115v35.8721c0,9.8691,6.1338,17.311,14.2676,17.311s14.2666-7.4419,14.2666-17.311v-35.8721c0-9.8691-6.1328-17.3115-14.2666-17.3115Z"></path></g><g><path class="g" d="M529.8598,128.8771c8.4389,0,14.8922-7.772,14.8922-17.9363v-35.8721c0-10.1638-6.4533-17.9363-14.8922-17.9363s-14.8922,7.7725-14.8922,17.9363v35.8721c0,10.1643,6.4533,17.9363,14.8922,17.9363h0Z"></path><path class="f" d="M529.8594,129.502c-8.8457,0-15.5166-7.9795-15.5166-18.561v-35.8721c0-10.582,6.6709-18.5615,15.5166-18.5615s15.5176,7.9795,15.5176,18.5615v35.8721c0,10.5815-6.6709,18.561-15.5176,18.561Zm0-71.7446c-8.1328,0-14.2666,7.4424-14.2666,17.3115v35.8721c0,9.8691,6.1338,17.311,14.2666,17.311s14.2676-7.4419,14.2676-17.311v-35.8721c0-9.8691-6.1338-17.3115-14.2676-17.3115Z"></path></g><g><rect class="d" x="256.7832" y="164.3268" width="337.5562" height="218.5407"></rect><path class="f" d="M594.9648,383.4922H256.1582V163.7017h338.8066v219.7905Zm-337.5566-1.25h336.3066V164.9517H257.4082v217.2905Z"></path></g><g><rect class="d" x="272.379" y="184.9141" width="47.8694" height="47.8694"></rect><path class="f" d="M320.248,233.4082h-47.8691c-.3447,0-.625-.2803-.625-.625v-47.8691c0-.3452,.2803-.625,.625-.625h47.8691c.3447,0,.625,.2798,.625,.625v47.8691c0,.3447-.2803,.625-.625,.625Zm-47.2441-1.25h46.6191v-46.6191h-46.6191v46.6191Z"></path></g><g><rect class="e" x="337.0028" y="184.9141" width="47.8694" height="47.8694"></rect><path class="f" d="M384.8721,233.4082h-47.8691c-.3447,0-.625-.2803-.625-.625v-47.8691c0-.3452,.2803-.625,.625-.625h47.8691c.3447,0,.625,.2798,.625,.625v47.8691c0,.3447-.2803,.625-.625,.625Zm-47.2441-1.25h46.6191v-46.6191h-46.6191v46.6191Z"></path></g><g><rect class="d" x="401.6266" y="184.9141" width="47.8694" height="47.8694"></rect><path class="f" d="M449.4961,233.4082h-47.8691c-.3447,0-.625-.2803-.625-.625v-47.8691c0-.3452,.2803-.625,.625-.625h47.8691c.3447,0,.625,.2798,.625,.625v47.8691c0,.3447-.2803,.625-.625,.625Zm-47.2441-1.25h46.6191v-46.6191h-46.6191v46.6191Z"></path></g><g><rect class="e" x="466.2504" y="184.9141" width="47.8694" height="47.8694"></rect><path class="f" d="M514.1201,233.4082h-47.8701c-.3447,0-.625-.2803-.625-.625v-47.8691c0-.3452,.2803-.625,.625-.625h47.8701c.3447,0,.625,.2798,.625,.625v47.8691c0,.3447-.2803,.625-.625,.625Zm-47.2451-1.25h46.6201v-46.6191h-46.6201v46.6191Z"></path></g><g><rect class="d" x="530.8742" y="184.9141" width="47.8694" height="47.8694"></rect><path class="f" d="M578.7432,233.4082h-47.8691c-.3447,0-.625-.2803-.625-.625v-47.8691c0-.3452,.2803-.625,.625-.625h47.8691c.3447,0,.625,.2798,.625,.625v47.8691c0,.3447-.2803,.625-.625,.625Zm-47.2441-1.25h46.6191v-46.6191h-46.6191v46.6191Z"></path></g><g><rect class="e" x="272.379" y="249.1831" width="47.8694" height="47.8694"></rect><path class="f" d="M320.248,297.6777h-47.8691c-.3447,0-.625-.2803-.625-.625v-47.8691c0-.3447,.2803-.625,.625-.625h47.8691c.3447,0,.625,.2803,.625,.625v47.8691c0,.3447-.2803,.625-.625,.625Zm-47.2441-1.25h46.6191v-46.6191h-46.6191v46.6191Z"></path></g><g><rect class="d" x="337.0028" y="249.1831" width="47.8694" height="47.8694"></rect><path class="f" d="M384.8721,297.6777h-47.8691c-.3447,0-.625-.2803-.625-.625v-47.8691c0-.3447,.2803-.625,.625-.625h47.8691c.3447,0,.625,.2803,.625,.625v47.8691c0,.3447-.2803,.625-.625,.625Zm-47.2441-1.25h46.6191v-46.6191h-46.6191v46.6191Z"></path></g><g><rect class="e" x="401.6266" y="249.1831" width="47.8694" height="47.8694"></rect><path class="f" d="M449.4961,297.6777h-47.8691c-.3447,0-.625-.2803-.625-.625v-47.8691c0-.3447,.2803-.625,.625-.625h47.8691c.3447,0,.625,.2803,.625,.625v47.8691c0,.3447-.2803,.625-.625,.625Zm-47.2441-1.25h46.6191v-46.6191h-46.6191v46.6191Z"></path></g><g><rect class="d" x="466.2504" y="249.1831" width="47.8694" height="47.8694"></rect><path class="f" d="M514.1201,297.6777h-47.8701c-.3447,0-.625-.2803-.625-.625v-47.8691c0-.3447,.2803-.625,.625-.625h47.8701c.3447,0,.625,.2803,.625,.625v47.8691c0,.3447-.2803,.625-.625,.625Zm-47.2451-1.25h46.6201v-46.6191h-46.6201v46.6191Z"></path></g><g><rect class="e" x="530.8742" y="249.1831" width="47.8694" height="47.8694"></rect><path class="f" d="M578.7432,297.6777h-47.8691c-.3447,0-.625-.2803-.625-.625v-47.8691c0-.3447,.2803-.625,.625-.625h47.8691c.3447,0,.625,.2803,.625,.625v47.8691c0,.3447-.2803,.625-.625,.625Zm-47.2441-1.25h46.6191v-46.6191h-46.6191v46.6191Z"></path></g><g><rect class="d" x="272.379" y="313.4522" width="47.8694" height="47.8694"></rect><path class="f" d="M320.248,361.9463h-47.8691c-.3447,0-.625-.2803-.625-.625v-47.8691c0-.3447,.2803-.625,.625-.625h47.8691c.3447,0,.625,.2803,.625,.625v47.8691c0,.3447-.2803,.625-.625,.625Zm-47.2441-1.25h46.6191v-46.6191h-46.6191v46.6191Z"></path></g><g><rect class="e" x="337.0028" y="313.4522" width="47.8694" height="47.8694"></rect><path class="f" d="M384.8721,361.9463h-47.8691c-.3447,0-.625-.2803-.625-.625v-47.8691c0-.3447,.2803-.625,.625-.625h47.8691c.3447,0,.625,.2803,.625,.625v47.8691c0,.3447-.2803,.625-.625,.625Zm-47.2441-1.25h46.6191v-46.6191h-46.6191v46.6191Z"></path></g><g><rect class="e" x="401.6266" y="313.4522" width="47.8694" height="47.8694"></rect><path class="f" d="M449.4961,361.9463h-47.8691c-.3447,0-.625-.2803-.625-.625v-47.8691c0-.3447,.2803-.625,.625-.625h47.8691c.3447,0,.625,.2803,.625,.625v47.8691c0,.3447-.2803,.625-.625,.625Zm-47.2441-1.25h46.6191v-46.6191h-46.6191v46.6191Z"></path></g><g><rect class="d" x="466.2504" y="313.4522" width="47.8694" height="47.8694"></rect><path class="f" d="M514.1201,361.9463h-47.8701c-.3447,0-.625-.2803-.625-.625v-47.8691c0-.3447,.2803-.625,.625-.625h47.8701c.3447,0,.625,.2803,.625,.625v47.8691c0,.3447-.2803,.625-.625,.625Zm-47.2451-1.25h46.6201v-46.6191h-46.6201v46.6191Z"></path></g><g><rect class="d" x="530.8742" y="313.4522" width="47.8694" height="47.8694"></rect><path class="f" d="M578.7432,361.9463h-47.8691c-.3447,0-.625-.2803-.625-.625v-47.8691c0-.3447,.2803-.625,.625-.625h47.8691c.3447,0,.625,.2803,.625,.625v47.8691c0,.3447-.2803,.625-.625,.625Zm-47.2441-1.25h46.6191v-46.6191h-46.6191v46.6191Z"></path></g></g><g><g><path class="f" d="M133.457,205.8574h-24.4385c-.3447,0-.625-.2798-.625-.625s.2803-.625,.625-.625h24.4385c.3447,0,.625,.2798,.625,.625s-.2803,.625-.625,.625Z"></path><path class="f" d="M131.0264,193.7271h-29.0127c-.3447,0-.625-.2798-.625-.625s.2803-.625,.625-.625h29.0127c.3447,0,.625,.2798,.625,.625s-.2803,.625-.625,.625Z"></path><path class="f" d="M133.457,181.5967h-24.4385c-.3447,0-.625-.2798-.625-.625s.2803-.625,.625-.625h24.4385c.3447,0,.625,.2798,.625,.625s-.2803,.625-.625,.625Z"></path></g><path class="f" d="M214.2852,184.0034c-.3447,0-.625-.2798-.625-.625V115.8862c0-.3452,.2803-.625,.625-.625s.625,.2798,.625,.625v67.4922c0,.3452-.2803,.625-.625,.625Z"></path><g><line class="h" x1="227.8604" y1="115.1693" x2="200.7817" y2="115.1693"></line><path class="f" d="M227.8604,115.7944h-27.0791c-.3447,0-.625-.2798-.625-.625s.2803-.625,.625-.625h27.0791c.3447,0,.625,.2798,.625,.625s-.2803,.625-.625,.625Z"></path></g><g><g><line class="h" x1="193.6247" y1="162.3426" x2="167.6188" y2="134.2094"></line><path class="f" d="M193.625,162.9678c-.168,0-.3359-.0674-.459-.2007l-26.0059-28.1333c-.2344-.2534-.2188-.6489,.0352-.8833,.252-.2344,.6475-.2202,.8828,.0347l26.0059,28.1333c.2344,.2534,.2188,.6489-.0352,.8833-.1201,.1113-.2715,.166-.4238,.166Z"></path></g><g><line class="h" x1="172.5549" y1="128.1971" x2="161.2676" y2="138.631"></line><path class="f" d="M161.2676,139.2559c-.168,0-.3359-.0674-.459-.2007-.2344-.2534-.2188-.6489,.0352-.8833l11.2871-10.4336c.252-.2339,.6475-.2202,.8828,.0347,.2344,.2534,.2188,.6489-.0352,.8833l-11.2871,10.4336c-.1201,.1113-.2715,.166-.4238,.166Z"></path></g></g><g><path class="g" d="M214.2862,259.3952c-37.5078,0-68.0236-30.5157-68.0236-68.0245s30.5157-68.0226,68.0236-68.0226,68.0216,30.5148,68.0216,68.0226-30.5138,68.0245-68.0216,68.0245Z"></path><path class="f" d="M214.2861,260.0205c-37.8525,0-68.6484-30.7959-68.6484-68.6499s30.7959-68.6475,68.6484-68.6475,68.6465,30.7949,68.6465,68.6475-30.7949,68.6499-68.6465,68.6499Zm0-136.0474c-37.1641,0-67.3984,30.2344-67.3984,67.3975s30.2344,67.3999,67.3984,67.3999,67.3965-30.2354,67.3965-67.3999-30.2344-67.3975-67.3965-67.3975Z"></path></g></g><g><g><line class="e" x1="216.7937" y1="198.1682" x2="179.588" y2="170.7073"></line><path class="f" d="M216.793,198.793c-.1289,0-.2588-.0396-.3701-.1221l-37.2061-27.4604c-.2773-.2051-.3369-.5962-.1318-.874,.2061-.2778,.5957-.3379,.874-.1318l37.2061,27.4604c.2773,.2051,.3369,.5962,.1318,.874-.123,.166-.3115,.2539-.5039,.2539Z"></path></g><g><line class="e" x1="213.7483" y1="200.1935" x2="214.3534" y2="153.9551"></line><path class="f" d="M213.748,200.8184h-.0078c-.3457-.0044-.6221-.2881-.6172-.6333l.6055-46.2383c.0049-.3423,.2832-.6167,.625-.6167h.0078c.3457,.0044,.6221,.2881,.6172,.6333l-.6055,46.2383c-.0049,.3423-.2832,.6167-.625,.6167Z"></path></g><g><circle class="d" cx="214.3534" cy="196.4143" r="10.0911"></circle><path class="f" d="M214.3535,207.1304c-5.9092,0-10.7158-4.8071-10.7158-10.7158s4.8066-10.7163,10.7158-10.7163,10.7158,4.8071,10.7158,10.7163-4.8066,10.7158-10.7158,10.7158Zm0-20.1821c-5.2197,0-9.4658,4.2466-9.4658,9.4663s4.2461,9.4658,9.4658,9.4658,9.4658-4.2466,9.4658-9.4658-4.2461-9.4663-9.4658-9.4663Z"></path></g></g></g></svg>